# xmcd
#
# Track frame offsets:
#	150
#	15432
#	29612
#	41382
#	54942
#	68327
#	81160
#	90632
#	109867
#	121875
#	136337
#	148857
#
# Disc length: 2197 seconds
#
# Revision: 1
# Processed by: cddbd v1.5.2PL0 Copyright (c) Steve Scherf et al.
# Submitted via: EZCDAudioConverter 6.0.5.1
#
DISCID=9508930c
DTITLE=Merle Haggard - 12 #1 Hits
DYEAR=1997
DGENRE=Country
TTITLE0=Twinkle Twinkle Luky Star
TTITLE1=Natural High
TTITLE2=Carolyn
TTITLE3=Big City
TTITLE4=My Favorite Memory
TTITLE5=Let's Chase Each Other Around The Room
TTITLE6=The Ledgend of Bonnie and Clyde
TTITLE7=Are The Good Times Really Over
TTITLE8=Things Aren't Funny Anymore
TTITLE9=Branded Man
TTITLE10=The Roots Of My Raising
TTITLE11=It's Not Love (But It's Not Bad)
EXTD=
EXTT0=
EXTT1=
EXTT2=
EXTT3=
EXTT4=
EXTT5=
EXTT6=
EXTT7=
EXTT8=
EXTT9=
EXTT10=
EXTT11=
PLAYORDER=
